<svg clip-rule="evenodd" fill-rule="evenodd" stroke-linejoin="round" stroke-miterlimit="2" viewBox="0 0 772 772" xmlns="http://www.w3.org/2000/svg" xmlns:xlink="http://www.w3.org/1999/xlink"><radialGradient id="a" cx="0" cy="0" gradientTransform="matrix(1574.88 -779.72 -779.72 -1574.88 0 772)" gradientUnits="userSpaceOnUse" r="1"><stop offset="0" stop-color="#3023ae"/><stop offset="1" stop-color="#c86dd7"/></radialGradient><path d="m0 0h1544v772h-1544z" fill="url(#a)" transform="matrix(.5 -0 0 -1 0 772)"/><g fill="#ff9414" fill-rule="nonzero" transform="translate(-340.265 -105.329)"><path d="m523.577 299h5.375c6.167 0 10.584-.792 13.25-2.375 2.667-1.583 4-4.125 4-7.625s-1.333-6.042-4-7.625c-2.666-1.583-7.083-2.375-13.25-2.375h-5.375zm0-38.25h4.5c7.667 0 11.5-3.042 11.5-9.125s-3.833-9.125-11.5-9.125h-4.5zm-24.5-37h36.5c8.667 0 15.25 2.083 19.75 6.25s6.75 10.167 6.75 18c0 4.75-.854 8.687-2.562 11.812s-4.313 5.771-7.813 7.938c3.5.667 6.48 1.687 8.938 3.062s4.458 3.063 6 5.063 2.646 4.25 3.312 6.75c.667 2.5 1 5.167 1 8 0 4.417-.77 8.333-2.312 11.75s-3.708 6.292-6.5 8.625-6.188 4.083-10.188 5.25-8.5 1.75-13.5 1.75h-39.375z"/><path d="m606.077 253.875v36.125c0 7.917 3.834 11.875 11.5 11.875 7.667 0 11.5-3.958 11.5-11.875v-36.125h22.625v40.5c0 8.667-2.854 15.167-8.562 19.5s-14.229 6.5-25.563 6.5c-11.333 0-19.854-2.167-25.562-6.5s-8.563-10.833-8.563-19.5v-40.5z"/><path d="m689.702 253.875v64.125h-22.625v-64.125zm-24.125-24.625c0-1.75.334-3.396 1-4.938.667-1.541 1.584-2.895 2.75-4.062 1.167-1.167 2.521-2.083 4.063-2.75s3.187-1 4.937-1 3.396.333 4.938 1 2.896 1.583 4.062 2.75c1.167 1.167 2.084 2.521 2.75 4.062.667 1.542 1 3.188 1 4.938s-.333 3.396-1 4.937c-.666 1.542-1.583 2.896-2.75 4.063-1.166 1.167-2.52 2.083-4.062 2.75s-3.188 1-4.938 1-3.395-.333-4.937-1-2.896-1.583-4.063-2.75c-1.166-1.167-2.083-2.521-2.75-4.063-.666-1.541-1-3.187-1-4.937z"/><path d="m705.202 214.25h22.625v103.75h-22.625z"/><path d="m764.327 285.75c0 2.083.375 4.021 1.125 5.812.75 1.792 1.771 3.355 3.063 4.688s2.833 2.375 4.625 3.125 3.729 1.125 5.812 1.125c2 0 3.896-.375 5.688-1.125s3.333-1.792 4.625-3.125 2.333-2.875 3.125-4.625 1.187-3.625 1.187-5.625-.395-3.896-1.187-5.688c-.792-1.791-1.833-3.354-3.125-4.687s-2.833-2.375-4.625-3.125-3.688-1.125-5.688-1.125-3.895.375-5.687 1.125-3.333 1.792-4.625 3.125-2.333 2.854-3.125 4.562c-.792 1.709-1.188 3.563-1.188 5.563zm28.5-71.5h22.75v103.75h-22.75v-7.125c-4.833 6.083-11.375 9.125-19.625 9.125-4.666 0-8.958-.875-12.875-2.625-3.916-1.75-7.333-4.167-10.25-7.25-2.916-3.083-5.187-6.708-6.812-10.875s-2.438-8.667-2.438-13.5c0-4.583.771-8.938 2.313-13.063s3.729-7.729 6.562-10.812c2.834-3.083 6.23-5.521 10.188-7.313 3.958-1.791 8.312-2.687 13.062-2.687 8 0 14.625 2.792 19.875 8.375z"/><path d="m877.827 276.625c-.75-3.167-2.291-5.708-4.625-7.625-2.333-1.917-5.166-2.875-8.5-2.875-3.5 0-6.354.917-8.562 2.75s-3.604 4.417-4.188 7.75zm-26.5 13.125c0 9.75 4.584 14.625 13.75 14.625 4.917 0 8.625-2 11.125-6h21.875c-4.416 14.667-15.458 22-33.125 22-5.416 0-10.375-.813-14.875-2.438s-8.354-3.937-11.562-6.937-5.688-6.583-7.438-10.75-2.625-8.833-2.625-14c0-5.333.834-10.146 2.5-14.438 1.667-4.291 4.042-7.937 7.125-10.937 3.084-3 6.813-5.313 11.188-6.938s9.312-2.437 14.812-2.437c5.417 0 10.292.812 14.625 2.437 4.334 1.625 8 3.98 11 7.063s5.292 6.854 6.875 11.312c1.584 4.459 2.375 9.48 2.375 15.063v2.375z"/><path d="m911.827 253.875h22.625v10.5c2.417-3.833 5.375-6.771 8.875-8.813 3.5-2.041 7.584-3.062 12.25-3.062h1.938c.708 0 1.521.083 2.437.25v21.625c-3-1.5-6.25-2.25-9.75-2.25-5.25 0-9.187 1.562-11.812 4.687s-3.938 7.688-3.938 13.688v27.5h-22.625z"/><path d="m406.14 381.25v36.75h-12.25v-36.75h-10.063v-10.375h32.375v10.375z"/><path d="m441.89 397.312c-.375-1.583-1.146-2.854-2.313-3.812-1.166-.958-2.583-1.438-4.25-1.438-1.75 0-3.177.459-4.281 1.375-1.104.917-1.802 2.209-2.094 3.875zm-13.25 6.563c0 4.875 2.292 7.312 6.875 7.312 2.458 0 4.312-1 5.562-3h10.938c-2.208 7.334-7.729 11-16.563 11-2.708 0-5.187-.406-7.437-1.218-2.25-.813-4.177-1.969-5.781-3.469s-2.844-3.292-3.719-5.375-1.313-4.417-1.313-7c0-2.667.417-5.073 1.25-7.219.834-2.146 2.021-3.969 3.563-5.469s3.406-2.656 5.594-3.468c2.187-.813 4.656-1.219 7.406-1.219 2.708 0 5.146.406 7.312 1.219 2.167.812 4 1.989 5.5 3.531s2.646 3.427 3.438 5.656 1.187 4.74 1.187 7.531v1.188z"/><path d="m458.89 385.937h11.312v3.938c3.084-2.958 6.542-4.438 10.375-4.438 4.75 0 8.375 2 10.875 6 2.542-4.041 6.167-6.062 10.875-6.062 1.5 0 2.917.219 4.25.656 1.334.438 2.48 1.125 3.438 2.063.958.937 1.719 2.156 2.281 3.656.563 1.5.844 3.312.844 5.437v20.813h-11.313v-15.813c0-1.625-.114-2.958-.343-4-.229-1.041-.563-1.854-1-2.437-.438-.583-.948-.979-1.532-1.188-.583-.208-1.208-.312-1.875-.312-3.625 0-5.437 2.646-5.437 7.937v15.813h-11.313v-15.813c0-1.625-.104-2.968-.312-4.031-.208-1.062-.51-1.906-.906-2.531s-.907-1.052-1.532-1.281-1.354-.344-2.187-.344c-.708 0-1.375.104-2 .312-.625.209-1.177.615-1.656 1.219s-.854 1.438-1.125 2.5c-.271 1.063-.407 2.448-.407 4.156v15.813h-11.312z"/><path d="m547.577 402.062c0-1-.177-1.947-.531-2.843s-.864-1.677-1.531-2.344-1.448-1.198-2.344-1.594-1.864-.594-2.906-.594c-1 0-1.938.188-2.813.563s-1.635.896-2.281 1.562c-.646.667-1.166 1.448-1.562 2.344s-.594 1.844-.594 2.844.187 1.937.562 2.812.896 1.636 1.563 2.282 1.448 1.166 2.344 1.562 1.843.594 2.843.594 1.938-.188 2.813-.563 1.635-.895 2.281-1.562 1.167-1.438 1.563-2.313.593-1.791.593-2.75zm-14.25 31.938h-11.312v-48.063h11.312v3.563c2.417-3.042 5.709-4.563 9.875-4.563 2.292 0 4.428.448 6.407 1.344s3.698 2.115 5.156 3.656c1.458 1.542 2.594 3.355 3.406 5.438.813 2.083 1.219 4.312 1.219 6.687s-.406 4.584-1.219 6.625c-.812 2.042-1.937 3.834-3.375 5.375-1.437 1.542-3.135 2.75-5.094 3.625-1.958.875-4.083 1.313-6.375 1.313-4 0-7.333-1.375-10-4.125z"/><path d="m565.827 366.125h11.313v51.875h-11.313z"/><path d="m595.39 401.875c0 1.042.187 2.01.562 2.906s.886 1.677 1.532 2.344 1.416 1.187 2.312 1.562 1.865.563 2.906.563c1 0 1.948-.188 2.844-.563s1.667-.895 2.313-1.562 1.166-1.438 1.562-2.313.594-1.812.594-2.812-.198-1.948-.594-2.844-.916-1.677-1.562-2.344c-.646-.666-1.417-1.187-2.313-1.562s-1.844-.563-2.844-.563c-1.041 0-2.01.188-2.906.563s-1.666.896-2.312 1.562c-.646.667-1.157 1.428-1.532 2.282s-.562 1.781-.562 2.781zm14.25-15.938h11.375v32.063h-11.375v-3.563c-2.417 3.042-5.688 4.563-9.813 4.563-2.333 0-4.479-.427-6.437-1.281s-3.667-2.052-5.125-3.594-2.594-3.354-3.406-5.438c-.813-2.083-1.219-4.354-1.219-6.812 0-2.292.396-4.469 1.187-6.531.792-2.063 1.896-3.865 3.313-5.407 1.417-1.541 3.104-2.76 5.062-3.656 1.959-.896 4.125-1.344 6.5-1.344 4 0 7.313 1.396 9.938 4.188z"/><path d="m641.327 395.375v22.625h-11.312v-22.625h-3.75v-9.438h3.75v-9.625h11.312v9.625h6.438v9.438z"/><path d="m676.077 397.312c-.375-1.583-1.145-2.854-2.312-3.812s-2.583-1.438-4.25-1.438c-1.75 0-3.177.459-4.281 1.375-1.104.917-1.802 2.209-2.094 3.875zm-13.25 6.563c0 4.875 2.292 7.312 6.875 7.312 2.459 0 4.313-1 5.563-3h10.937c-2.208 7.334-7.729 11-16.562 11-2.708 0-5.188-.406-7.438-1.218-2.25-.813-4.177-1.969-5.781-3.469s-2.844-3.292-3.719-5.375-1.312-4.417-1.312-7c0-2.667.417-5.073 1.25-7.219s2.021-3.969 3.562-5.469c1.542-1.5 3.407-2.656 5.594-3.468 2.188-.813 4.656-1.219 7.406-1.219 2.709 0 5.146.406 7.313 1.219 2.167.812 4 1.989 5.5 3.531s2.646 3.427 3.437 5.656c.792 2.229 1.188 4.74 1.188 7.531v1.188z"/><path d="m749.327 386.625c-2.833-3.458-6.333-5.188-10.5-5.188-1.833 0-3.531.334-5.093 1-1.563.667-2.907 1.573-4.032 2.719s-2.01 2.511-2.656 4.094-.969 3.292-.969 5.125c0 1.875.323 3.604.969 5.187.646 1.584 1.542 2.959 2.688 4.125 1.146 1.167 2.489 2.084 4.031 2.75 1.542.667 3.208 1 5 1 3.917 0 7.437-1.666 10.562-5v14.5l-1.25.438c-1.875.667-3.625 1.156-5.25 1.469-1.625.312-3.229.468-4.812.468-3.25 0-6.365-.614-9.344-1.843s-5.604-2.959-7.875-5.188-4.094-4.875-5.469-7.937c-1.375-3.063-2.062-6.407-2.062-10.032s.677-6.947 2.031-9.968 3.167-5.625 5.438-7.813c2.271-2.187 4.906-3.896 7.906-5.125s6.146-1.844 9.437-1.844c1.875 0 3.719.198 5.532.594 1.812.396 3.718 1.011 5.718 1.844z"/><path d="m766.515 401.875c0 1.042.187 2.01.562 2.906s.886 1.677 1.532 2.344 1.416 1.187 2.312 1.562 1.865.563 2.906.563c1 0 1.948-.188 2.844-.563s1.667-.895 2.313-1.562 1.166-1.438 1.562-2.313.594-1.812.594-2.812-.198-1.948-.594-2.844-.916-1.677-1.562-2.344c-.646-.666-1.417-1.187-2.313-1.562s-1.844-.563-2.844-.563c-1.041 0-2.01.188-2.906.563s-1.666.896-2.312 1.562c-.646.667-1.157 1.428-1.532 2.282s-.562 1.781-.562 2.781zm14.25-15.938h11.375v32.063h-11.375v-3.563c-2.417 3.042-5.688 4.563-9.813 4.563-2.333 0-4.479-.427-6.437-1.281s-3.667-2.052-5.125-3.594-2.594-3.354-3.406-5.438c-.813-2.083-1.219-4.354-1.219-6.812 0-2.292.396-4.469 1.187-6.531.792-2.063 1.896-3.865 3.313-5.407 1.417-1.541 3.104-2.76 5.062-3.656 1.959-.896 4.125-1.344 6.5-1.344 4 0 7.313 1.396 9.938 4.188z"/><path d="m812.452 395.375v22.625h-11.312v-22.625h-3.75v-9.438h3.75v-9.625h11.312v9.625h6.438v9.438z"/><path d="m847.202 397.312c-.375-1.583-1.145-2.854-2.312-3.812s-2.583-1.438-4.25-1.438c-1.75 0-3.177.459-4.281 1.375-1.104.917-1.802 2.209-2.094 3.875zm-13.25 6.563c0 4.875 2.292 7.312 6.875 7.312 2.459 0 4.313-1 5.563-3h10.937c-2.208 7.334-7.729 11-16.562 11-2.708 0-5.188-.406-7.438-1.218-2.25-.813-4.177-1.969-5.781-3.469s-2.844-3.292-3.719-5.375-1.312-4.417-1.312-7c0-2.667.417-5.073 1.25-7.219s2.021-3.969 3.562-5.469c1.542-1.5 3.407-2.656 5.594-3.468 2.188-.813 4.656-1.219 7.406-1.219 2.709 0 5.146.406 7.313 1.219 2.167.812 4 1.989 5.5 3.531s2.646 3.427 3.437 5.656c.792 2.229 1.188 4.74 1.188 7.531v1.188z"/><path d="m874.702 401.812c0 1.042.188 2.011.563 2.907s.885 1.677 1.531 2.343c.646.667 1.417 1.188 2.313 1.563s1.864.562 2.906.562c1 0 1.948-.187 2.844-.562s1.666-.896 2.312-1.563c.646-.666 1.167-1.447 1.563-2.343s.593-1.844.593-2.844c0-1.042-.197-2-.593-2.875s-.927-1.646-1.594-2.313c-.667-.666-1.448-1.187-2.344-1.562s-1.823-.563-2.781-.563c-1 0-1.938.198-2.813.594s-1.645.917-2.312 1.563-1.198 1.406-1.594 2.281-.594 1.812-.594 2.812zm25.375-15.875v29.875c0 1.792-.104 3.396-.312 4.813s-.5 2.667-.875 3.75c-.5 1.375-1.281 2.656-2.344 3.844-1.062 1.187-2.344 2.218-3.844 3.093s-3.197 1.563-5.093 2.063-3.948.75-6.157.75c-2.5 0-4.791-.313-6.875-.938-2.083-.625-3.906-1.489-5.468-2.593-1.563-1.104-2.844-2.396-3.844-3.875s-1.667-3.094-2-4.844h12.75c.792 2.125 2.583 3.187 5.375 3.187 2.375 0 4.198-.666 5.469-2 1.271-1.333 1.906-3.187 1.906-5.562v-3.063c-.833.792-1.635 1.448-2.406 1.969s-1.552.948-2.344 1.281c-.792.334-1.625.573-2.5.719s-1.833.219-2.875.219c-2.292 0-4.396-.396-6.313-1.188-1.916-.791-3.572-1.895-4.968-3.312s-2.479-3.115-3.25-5.094-1.157-4.177-1.157-6.594c0-2.458.417-4.739 1.25-6.843.834-2.104 1.969-3.938 3.407-5.5 1.437-1.563 3.146-2.792 5.125-3.688s4.135-1.344 6.468-1.344c3.792 0 6.98 1.417 9.563 4.25v-3.375z"/><path d="m918.452 401.812c0 1.084.198 2.073.594 2.969s.917 1.677 1.563 2.344 1.416 1.187 2.312 1.562 1.844.563 2.844.563 1.948-.188 2.844-.563 1.666-.895 2.312-1.562 1.167-1.448 1.563-2.344.593-1.864.593-2.906c0-1-.197-1.948-.593-2.844s-.917-1.677-1.563-2.344c-.646-.666-1.416-1.187-2.312-1.562s-1.844-.563-2.844-.563-1.948.188-2.844.563-1.666.896-2.312 1.562c-.646.667-1.167 1.438-1.563 2.313s-.594 1.812-.594 2.812zm-11.937-.125c0-2.375.479-4.593 1.437-6.656.959-2.062 2.292-3.854 4-5.375 1.709-1.521 3.74-2.719 6.094-3.594s4.927-1.312 7.719-1.312c2.75 0 5.302.427 7.656 1.281s4.396 2.042 6.125 3.563 3.073 3.333 4.031 5.437c.959 2.104 1.438 4.427 1.438 6.969s-.49 4.865-1.469 6.969-2.323 3.916-4.031 5.437-3.76 2.698-6.156 3.531c-2.396.834-4.99 1.25-7.782 1.25-2.75 0-5.291-.416-7.625-1.25-2.333-.833-4.343-2.02-6.031-3.562-1.687-1.542-3.01-3.385-3.969-5.531-.958-2.146-1.437-4.532-1.437-7.157z"/><path d="m951.515 385.937h11.312v5.25c1.209-1.916 2.688-3.385 4.438-4.406s3.792-1.531 6.125-1.531h.969c.354 0 .76.042 1.218.125v10.812c-1.5-.75-3.125-1.125-4.875-1.125-2.625 0-4.593.782-5.906 2.344-1.312 1.563-1.969 3.844-1.969 6.844v13.75h-11.312z"/><path d="m991.952 385.937v32.063h-11.312v-32.063zm-12.062-12.312c0-.875.167-1.698.5-2.469s.792-1.448 1.375-2.031 1.26-1.042 2.031-1.375 1.594-.5 2.469-.5 1.698.167 2.469.5 1.448.792 2.031 1.375 1.042 1.26 1.375 2.031.5 1.594.5 2.469-.167 1.698-.5 2.469-.792 1.448-1.375 2.031-1.26 1.042-2.031 1.375-1.594.5-2.469.5-1.698-.167-2.469-.5-1.448-.792-2.031-1.375-1.042-1.26-1.375-2.031-.5-1.594-.5-2.469z"/><path d="m1023.14 397.312c-.38-1.583-1.15-2.854-2.31-3.812-1.17-.958-2.59-1.438-4.25-1.438-1.75 0-3.18.459-4.28 1.375-1.11.917-1.81 2.209-2.1 3.875zm-13.25 6.563c0 4.875 2.29 7.312 6.87 7.312 2.46 0 4.32-1 5.57-3h10.94c-2.21 7.334-7.73 11-16.57 11-2.71 0-5.19-.406-7.44-1.218-2.25-.813-4.17-1.969-5.78-3.469-1.6-1.5-2.84-3.292-3.715-5.375s-1.313-4.417-1.313-7c0-2.667.417-5.073 1.25-7.219.838-2.146 2.018-3.969 3.558-5.469 1.55-1.5 3.41-2.656 5.6-3.468 2.19-.813 4.65-1.219 7.4-1.219 2.71 0 5.15.406 7.32 1.219 2.16.812 4 1.989 5.5 3.531s2.64 3.427 3.44 5.656c.79 2.229 1.18 4.74 1.18 7.531v1.188z"/><path d="m1061.39 394.187c-2.08-1.083-4.12-1.625-6.12-1.625-1.05 0-1.89.209-2.54.625-.64.417-.96.98-.96 1.688 0 .375.05.677.15.906.11.229.34.448.69.656.35.209.87.396 1.56.563s1.6.375 2.72.625c3.13.625 5.46 1.74 7 3.344s2.31 3.656 2.31 6.156c0 1.875-.37 3.562-1.12 5.062s-1.79 2.761-3.13 3.782c-1.33 1.021-2.93 1.812-4.81 2.375-1.87.562-3.94.843-6.19.843-4.33 0-8.6-1.229-12.81-3.687l4.13-8c3.16 2.167 6.16 3.25 9 3.25 1.04 0 1.89-.229 2.56-.688.66-.458 1-1.041 1-1.75 0-.416-.05-.76-.16-1.031-.1-.271-.32-.521-.65-.75-.34-.229-.83-.437-1.47-.625-.65-.187-1.49-.385-2.53-.594-3.5-.708-5.95-1.76-7.35-3.156-1.39-1.396-2.09-3.323-2.09-5.781 0-1.792.33-3.406 1-4.844.66-1.437 1.62-2.656 2.87-3.656s2.76-1.771 4.53-2.313c1.78-.541 3.74-.812 5.91-.812 3.54 0 6.98.687 10.31 2.062z"/></g><path d="m12 19h-7c-1.097 0-2-.903-2-2v-11c0-1.097.903-2 2-2h4l3 3h7c1.097 0 2 .903 2 2v3.5m-5 6.5h6m-3-3v6" fill="none" stroke="#adb8c2" stroke-width="2.25" transform="matrix(11.7136 -1.86356 1.86356 11.7136 216.432 448.455)"/></svg>