<svg clip-rule="evenodd" fill-rule="evenodd" stroke-linejoin="round" stroke-miterlimit="2" viewBox="0 0 772 772" xmlns="http://www.w3.org/2000/svg" xmlns:xlink="http://www.w3.org/1999/xlink"><radialGradient id="a" cx="0" cy="0" gradientTransform="matrix(1574.88 -779.72 -779.72 -1574.88 0 772)" gradientUnits="userSpaceOnUse" r="1"><stop offset="0" stop-color="#3023ae"/><stop offset="1" stop-color="#c86dd7"/></radialGradient><path d="m0 0h1544v772h-1544z" fill="url(#a)" transform="matrix(.5 -0 0 -1 0 772)"/><g fill="#ff9414" fill-rule="nonzero" transform="translate(-340.452 -144.225)"><path d="m564.002 302.8h4.3c4.934 0 8.467-.633 10.6-1.9 2.134-1.267 3.2-3.3 3.2-6.1s-1.066-4.833-3.2-6.1c-2.133-1.267-5.666-1.9-10.6-1.9h-4.3zm0-30.6h3.6c6.134 0 9.2-2.433 9.2-7.3s-3.066-7.3-9.2-7.3h-3.6zm-19.6-29.6h29.2c6.934 0 12.2 1.667 15.8 5s5.4 8.133 5.4 14.4c0 3.8-.683 6.95-2.05 9.45-1.366 2.5-3.45 4.617-6.25 6.35 2.8.533 5.184 1.35 7.15 2.45 1.967 1.1 3.567 2.45 4.8 4.05 1.234 1.6 2.117 3.4 2.65 5.4.534 2 .8 4.133.8 6.4 0 3.533-.616 6.667-1.85 9.4-1.233 2.733-2.966 5.033-5.2 6.9-2.233 1.867-4.95 3.267-8.15 4.2s-6.8 1.4-10.8 1.4h-31.5z"/><path d="m630.002 266.7v28.9c0 6.333 3.067 9.5 9.2 9.5 6.134 0 9.2-3.167 9.2-9.5v-28.9h18.1v32.4c0 6.933-2.283 12.133-6.85 15.6-4.566 3.467-11.383 5.2-20.45 5.2-9.066 0-15.883-1.733-20.45-5.2-4.566-3.467-6.85-8.667-6.85-15.6v-32.4z"/><path d="m696.902 266.7v51.3h-18.1v-51.3zm-19.3-19.7c0-1.4.267-2.717.8-3.95.534-1.233 1.267-2.317 2.2-3.25.934-.933 2.017-1.667 3.25-2.2 1.234-.533 2.55-.8 3.95-.8s2.717.267 3.95.8c1.234.533 2.317 1.267 3.25 2.2.934.933 1.667 2.017 2.2 3.25.534 1.233.8 2.55.8 3.95s-.266 2.717-.8 3.95c-.533 1.233-1.266 2.317-2.2 3.25-.933.933-2.016 1.667-3.25 2.2-1.233.533-2.55.8-3.95.8s-2.716-.267-3.95-.8c-1.233-.533-2.316-1.267-3.25-2.2-.933-.933-1.666-2.017-2.2-3.25-.533-1.233-.8-2.55-.8-3.95z"/><path d="m709.302 235h18.1v83h-18.1z"/><path d="m756.602 292.2c0 1.667.3 3.217.9 4.65s1.417 2.683 2.45 3.75c1.034 1.067 2.267 1.9 3.7 2.5 1.434.6 2.984.9 4.65.9 1.6 0 3.117-.3 4.55-.9 1.434-.6 2.667-1.433 3.7-2.5 1.034-1.067 1.867-2.3 2.5-3.7.634-1.4.95-2.9.95-4.5s-.316-3.117-.95-4.55c-.633-1.433-1.466-2.683-2.5-3.75-1.033-1.067-2.266-1.9-3.7-2.5-1.433-.6-2.95-.9-4.55-.9s-3.116.3-4.55.9c-1.433.6-2.666 1.433-3.7 2.5-1.033 1.067-1.866 2.283-2.5 3.65-.633 1.367-.95 2.85-.95 4.45zm22.8-57.2h18.2v83h-18.2v-5.7c-3.866 4.867-9.1 7.3-15.7 7.3-3.733 0-7.166-.7-10.3-2.1-3.133-1.4-5.866-3.333-8.2-5.8-2.333-2.467-4.15-5.367-5.45-8.7s-1.95-6.933-1.95-10.8c0-3.667.617-7.15 1.85-10.45 1.234-3.3 2.984-6.183 5.25-8.65 2.267-2.467 4.984-4.417 8.15-5.85 3.167-1.433 6.65-2.15 10.45-2.15 6.4 0 11.7 2.233 15.9 6.7z"/><path d="m847.402 284.9c-.6-2.533-1.833-4.567-3.7-6.1-1.866-1.533-4.133-2.3-6.8-2.3-2.8 0-5.083.733-6.85 2.2-1.766 1.467-2.883 3.533-3.35 6.2zm-21.2 10.5c0 7.8 3.667 11.7 11 11.7 3.934 0 6.9-1.6 8.9-4.8h17.5c-3.533 11.733-12.366 17.6-26.5 17.6-4.333 0-8.3-.65-11.9-1.95s-6.683-3.15-9.25-5.55c-2.566-2.4-4.55-5.267-5.95-8.6s-2.1-7.067-2.1-11.2c0-4.267.667-8.117 2-11.55 1.334-3.433 3.234-6.35 5.7-8.75 2.467-2.4 5.45-4.25 8.95-5.55s7.45-1.95 11.85-1.95c4.334 0 8.234.65 11.7 1.95 3.467 1.3 6.4 3.183 8.8 5.65s4.234 5.483 5.5 9.05c1.267 3.567 1.9 7.583 1.9 12.05v1.9z"/><path d="m874.602 266.7h18.1v8.4c1.934-3.067 4.3-5.417 7.1-7.05s6.067-2.45 9.8-2.45h1.55c.567 0 1.217.067 1.95.2v17.3c-2.4-1.2-5-1.8-7.8-1.8-4.2 0-7.35 1.25-9.45 3.75s-3.15 6.15-3.15 10.95v22h-18.1z"/><path d="m517.502 384.2v58.8h-19.6v-58.8h-16.1v-16.6h51.8v16.6z"/><path d="m574.702 409.9c-.6-2.533-1.833-4.567-3.7-6.1-1.866-1.533-4.133-2.3-6.8-2.3-2.8 0-5.083.733-6.85 2.2-1.766 1.467-2.883 3.533-3.35 6.2zm-21.2 10.5c0 7.8 3.667 11.7 11 11.7 3.934 0 6.9-1.6 8.9-4.8h17.5c-3.533 11.733-12.366 17.6-26.5 17.6-4.333 0-8.3-.65-11.9-1.95s-6.683-3.15-9.25-5.55c-2.566-2.4-4.55-5.267-5.95-8.6s-2.1-7.067-2.1-11.2c0-4.267.667-8.117 2-11.55 1.334-3.433 3.234-6.35 5.7-8.75 2.467-2.4 5.45-4.25 8.95-5.55s7.45-1.95 11.85-1.95c4.334 0 8.234.65 11.7 1.95 3.467 1.3 6.4 3.183 8.8 5.65s4.234 5.483 5.5 9.05c1.267 3.567 1.9 7.583 1.9 12.05v1.9z"/><path d="m601.902 391.7h18.1v6.3c4.934-4.733 10.467-7.1 16.6-7.1 7.6 0 13.4 3.2 17.4 9.6 4.067-6.467 9.867-9.7 17.4-9.7 2.4 0 4.667.35 6.8 1.05 2.134.7 3.967 1.8 5.5 3.3 1.534 1.5 2.75 3.45 3.65 5.85s1.35 5.3 1.35 8.7v33.3h-18.1v-25.3c0-2.6-.183-4.733-.55-6.4-.366-1.667-.9-2.967-1.6-3.9s-1.516-1.567-2.45-1.9c-.933-.333-1.933-.5-3-.5-5.8 0-8.7 4.233-8.7 12.7v25.3h-18.1v-25.3c0-2.6-.166-4.75-.5-6.45-.333-1.7-.816-3.05-1.45-4.05-.633-1-1.45-1.683-2.45-2.05s-2.166-.55-3.5-.55c-1.133 0-2.2.167-3.2.5s-1.883.983-2.65 1.95c-.766.967-1.366 2.3-1.8 4-.433 1.7-.65 3.917-.65 6.65v25.3h-18.1z"/><path d="m743.802 417.5c0-1.6-.283-3.117-.85-4.55-.566-1.433-1.383-2.683-2.45-3.75-1.066-1.067-2.316-1.917-3.75-2.55-1.433-.633-2.983-.95-4.65-.95-1.6 0-3.1.3-4.5.9s-2.616 1.433-3.65 2.5c-1.033 1.067-1.866 2.317-2.5 3.75-.633 1.433-.95 2.95-.95 4.55s.3 3.1.9 4.5 1.434 2.617 2.5 3.65c1.067 1.033 2.317 1.867 3.75 2.5 1.434.633 2.95.95 4.55.95s3.1-.3 4.5-.9 2.617-1.433 3.65-2.5c1.034-1.067 1.867-2.3 2.5-3.7.634-1.4.95-2.867.95-4.4zm-22.8 51.1h-18.1v-76.9h18.1v5.7c3.867-4.867 9.134-7.3 15.8-7.3 3.667 0 7.084.717 10.25 2.15 3.167 1.433 5.917 3.383 8.25 5.85 2.334 2.467 4.15 5.367 5.45 8.7s1.95 6.9 1.95 10.7-.65 7.333-1.95 10.6-3.1 6.133-5.4 8.6-5.016 4.4-8.15 5.8c-3.133 1.4-6.533 2.1-10.2 2.1-6.4 0-11.733-2.2-16-6.6z"/><path d="m773.002 360h18.1v83h-18.1z"/><path d="m820.302 417.2c0 1.667.3 3.217.9 4.65s1.417 2.683 2.45 3.75c1.034 1.067 2.267 1.9 3.7 2.5 1.434.6 2.984.9 4.65.9 1.6 0 3.117-.3 4.55-.9 1.434-.6 2.667-1.433 3.7-2.5 1.034-1.067 1.867-2.3 2.5-3.7.634-1.4.95-2.9.95-4.5s-.316-3.117-.95-4.55c-.633-1.433-1.466-2.683-2.5-3.75-1.033-1.067-2.266-1.9-3.7-2.5-1.433-.6-2.95-.9-4.55-.9-1.666 0-3.216.3-4.65.9-1.433.6-2.666 1.433-3.7 2.5-1.033 1.067-1.85 2.283-2.45 3.65s-.9 2.85-.9 4.45zm22.8-25.5h18.2v51.3h-18.2v-5.7c-3.866 4.867-9.1 7.3-15.7 7.3-3.733 0-7.166-.683-10.3-2.05-3.133-1.367-5.866-3.283-8.2-5.75-2.333-2.467-4.15-5.367-5.45-8.7s-1.95-6.967-1.95-10.9c0-3.667.634-7.15 1.9-10.45 1.267-3.3 3.034-6.183 5.3-8.65 2.267-2.467 4.967-4.417 8.1-5.85 3.134-1.433 6.6-2.15 10.4-2.15 6.4 0 11.7 2.233 15.9 6.7z"/><path d="m893.802 406.8v36.2h-18.1v-36.2h-6v-15.1h6v-15.4h18.1v15.4h10.3v15.1z"/><path d="m949.402 409.9c-.6-2.533-1.833-4.567-3.7-6.1-1.866-1.533-4.133-2.3-6.8-2.3-2.8 0-5.083.733-6.85 2.2-1.766 1.467-2.883 3.533-3.35 6.2zm-21.2 10.5c0 7.8 3.667 11.7 11 11.7 3.934 0 6.9-1.6 8.9-4.8h17.5c-3.533 11.733-12.366 17.6-26.5 17.6-4.333 0-8.3-.65-11.9-1.95s-6.683-3.15-9.25-5.55c-2.566-2.4-4.55-5.267-5.95-8.6s-2.1-7.067-2.1-11.2c0-4.267.667-8.117 2-11.55 1.334-3.433 3.234-6.35 5.7-8.75 2.467-2.4 5.45-4.25 8.95-5.55s7.45-1.95 11.85-1.95c4.334 0 8.234.65 11.7 1.95 3.467 1.3 6.4 3.183 8.8 5.65s4.234 5.483 5.5 9.05c1.267 3.567 1.9 7.583 1.9 12.05v1.9z"/><path d="m501.802 517.8c-4.533-5.533-10.133-8.3-16.8-8.3-2.933 0-5.65.533-8.15 1.6s-4.65 2.517-6.45 4.35-3.216 4.017-4.25 6.55c-1.033 2.533-1.55 5.267-1.55 8.2 0 3 .517 5.767 1.55 8.3 1.034 2.533 2.467 4.733 4.3 6.6 1.834 1.867 3.984 3.333 6.45 4.4 2.467 1.067 5.134 1.6 8 1.6 6.267 0 11.9-2.667 16.9-8v23.2l-2 .7c-3 1.067-5.8 1.85-8.4 2.35s-5.166.75-7.7.75c-5.2 0-10.183-.983-14.95-2.95-4.766-1.967-8.966-4.733-12.6-8.3-3.633-3.567-6.55-7.8-8.75-12.7s-3.3-10.25-3.3-16.05 1.084-11.117 3.25-15.95c2.167-4.833 5.067-9 8.7-12.5 3.634-3.5 7.85-6.233 12.65-8.2s9.834-2.95 15.1-2.95c3 0 5.95.317 8.85.95s5.95 1.617 9.15 2.95z"/><path d="m529.302 542.2c0 1.667.3 3.217.9 4.65s1.417 2.683 2.45 3.75c1.034 1.067 2.267 1.9 3.7 2.5 1.434.6 2.984.9 4.65.9 1.6 0 3.117-.3 4.55-.9 1.434-.6 2.667-1.433 3.7-2.5 1.034-1.067 1.867-2.3 2.5-3.7.634-1.4.95-2.9.95-4.5s-.316-3.117-.95-4.55c-.633-1.433-1.466-2.683-2.5-3.75-1.033-1.067-2.266-1.9-3.7-2.5-1.433-.6-2.95-.9-4.55-.9-1.666 0-3.216.3-4.65.9-1.433.6-2.666 1.433-3.7 2.5-1.033 1.067-1.85 2.283-2.45 3.65s-.9 2.85-.9 4.45zm22.8-25.5h18.2v51.3h-18.2v-5.7c-3.866 4.867-9.1 7.3-15.7 7.3-3.733 0-7.166-.683-10.3-2.05-3.133-1.367-5.866-3.283-8.2-5.75-2.333-2.467-4.15-5.367-5.45-8.7s-1.95-6.967-1.95-10.9c0-3.667.634-7.15 1.9-10.45 1.267-3.3 3.034-6.183 5.3-8.65 2.267-2.467 4.967-4.417 8.1-5.85 3.134-1.433 6.6-2.15 10.4-2.15 6.4 0 11.7 2.233 15.9 6.7z"/><path d="m602.802 531.8v36.2h-18.1v-36.2h-6v-15.1h6v-15.4h18.1v15.4h10.3v15.1z"/><path d="m658.402 534.9c-.6-2.533-1.833-4.567-3.7-6.1-1.866-1.533-4.133-2.3-6.8-2.3-2.8 0-5.083.733-6.85 2.2-1.766 1.467-2.883 3.533-3.35 6.2zm-21.2 10.5c0 7.8 3.667 11.7 11 11.7 3.934 0 6.9-1.6 8.9-4.8h17.5c-3.533 11.733-12.366 17.6-26.5 17.6-4.333 0-8.3-.65-11.9-1.95s-6.683-3.15-9.25-5.55c-2.566-2.4-4.55-5.267-5.95-8.6s-2.1-7.067-2.1-11.2c0-4.267.667-8.117 2-11.55 1.334-3.433 3.234-6.35 5.7-8.75 2.467-2.4 5.45-4.25 8.95-5.55s7.45-1.95 11.85-1.95c4.334 0 8.234.65 11.7 1.95 3.467 1.3 6.4 3.183 8.8 5.65s4.234 5.483 5.5 9.05c1.267 3.567 1.9 7.583 1.9 12.05v1.9z"/><path d="m702.402 542.1c0 1.667.3 3.217.9 4.65s1.417 2.683 2.45 3.75c1.034 1.067 2.267 1.9 3.7 2.5 1.434.6 2.984.9 4.65.9 1.6 0 3.117-.3 4.55-.9 1.434-.6 2.667-1.433 3.7-2.5 1.034-1.067 1.867-2.317 2.5-3.75.634-1.433.95-2.95.95-4.55 0-1.667-.316-3.2-.95-4.6-.633-1.4-1.483-2.633-2.55-3.7-1.066-1.067-2.316-1.9-3.75-2.5-1.433-.6-2.916-.9-4.45-.9-1.6 0-3.1.317-4.5.95s-2.633 1.467-3.7 2.5c-1.066 1.033-1.916 2.25-2.55 3.65-.633 1.4-.95 2.9-.95 4.5zm40.6-25.4v47.8c0 2.867-.166 5.433-.5 7.7-.333 2.267-.8 4.267-1.4 6-.8 2.2-2.05 4.25-3.75 6.15s-3.75 3.55-6.15 4.95-5.116 2.5-8.15 3.3c-3.033.8-6.316 1.2-9.85 1.2-4 0-7.666-.5-11-1.5-3.333-1-6.25-2.383-8.75-4.15s-4.55-3.833-6.15-6.2-2.666-4.95-3.2-7.75h20.4c1.267 3.4 4.134 5.1 8.6 5.1 3.8 0 6.717-1.067 8.75-3.2 2.034-2.133 3.05-5.1 3.05-8.9v-4.9c-1.333 1.267-2.616 2.317-3.85 3.15-1.233.833-2.483 1.517-3.75 2.05-1.266.533-2.6.917-4 1.15s-2.933.35-4.6.35c-3.666 0-7.033-.633-10.1-1.9-3.066-1.267-5.716-3.033-7.95-5.3-2.233-2.267-3.966-4.983-5.2-8.15-1.233-3.167-1.85-6.683-1.85-10.55 0-3.933.667-7.583 2-10.95 1.334-3.367 3.15-6.3 5.45-8.8s5.034-4.467 8.2-5.9c3.167-1.433 6.617-2.15 10.35-2.15 6.067 0 11.167 2.267 15.3 6.8v-5.4z"/><path d="m772.402 542.1c0 1.733.317 3.317.95 4.75.634 1.433 1.467 2.683 2.5 3.75 1.034 1.067 2.267 1.9 3.7 2.5 1.434.6 2.95.9 4.55.9s3.117-.3 4.55-.9c1.434-.6 2.667-1.433 3.7-2.5 1.034-1.067 1.867-2.317 2.5-3.75.634-1.433.95-2.983.95-4.65 0-1.6-.316-3.117-.95-4.55-.633-1.433-1.466-2.683-2.5-3.75-1.033-1.067-2.266-1.9-3.7-2.5-1.433-.6-2.95-.9-4.55-.9s-3.116.3-4.55.9c-1.433.6-2.666 1.433-3.7 2.5-1.033 1.067-1.866 2.3-2.5 3.7-.633 1.4-.95 2.9-.95 4.5zm-19.1-.2c0-3.8.767-7.35 2.3-10.65 1.534-3.3 3.667-6.167 6.4-8.6 2.734-2.433 5.984-4.35 9.75-5.75 3.767-1.4 7.884-2.1 12.35-2.1 4.4 0 8.484.683 12.25 2.05 3.767 1.367 7.034 3.267 9.8 5.7 2.767 2.433 4.917 5.333 6.45 8.7 1.534 3.367 2.3 7.083 2.3 11.15s-.783 7.783-2.35 11.15c-1.566 3.367-3.716 6.267-6.45 8.7-2.733 2.433-6.016 4.317-9.85 5.65-3.833 1.333-7.983 2-12.45 2-4.4 0-8.466-.667-12.2-2-3.733-1.333-6.95-3.233-9.65-5.7s-4.816-5.417-6.35-8.85c-1.533-3.433-2.3-7.25-2.3-11.45z"/><path d="m825.302 516.7h18.1v8.4c1.934-3.067 4.3-5.417 7.1-7.05s6.067-2.45 9.8-2.45h1.55c.567 0 1.217.067 1.95.2v17.3c-2.4-1.2-5-1.8-7.8-1.8-4.2 0-7.35 1.25-9.45 3.75s-3.15 6.15-3.15 10.95v22h-18.1z"/><path d="m890.002 516.7v51.3h-18.1v-51.3zm-19.3-19.7c0-1.4.267-2.717.8-3.95.534-1.233 1.267-2.317 2.2-3.25.934-.933 2.017-1.667 3.25-2.2 1.234-.533 2.55-.8 3.95-.8s2.717.267 3.95.8c1.234.533 2.317 1.267 3.25 2.2.934.933 1.667 2.017 2.2 3.25.534 1.233.8 2.55.8 3.95s-.266 2.717-.8 3.95c-.533 1.233-1.266 2.317-2.2 3.25-.933.933-2.016 1.667-3.25 2.2-1.233.533-2.55.8-3.95.8s-2.716-.267-3.95-.8c-1.233-.533-2.316-1.267-3.25-2.2-.933-.933-1.666-2.017-2.2-3.25-.533-1.233-.8-2.55-.8-3.95z"/><path d="m939.902 534.9c-.6-2.533-1.833-4.567-3.7-6.1-1.866-1.533-4.133-2.3-6.8-2.3-2.8 0-5.083.733-6.85 2.2-1.766 1.467-2.883 3.533-3.35 6.2zm-21.2 10.5c0 7.8 3.667 11.7 11 11.7 3.934 0 6.9-1.6 8.9-4.8h17.5c-3.533 11.733-12.366 17.6-26.5 17.6-4.333 0-8.3-.65-11.9-1.95s-6.683-3.15-9.25-5.55c-2.566-2.4-4.55-5.267-5.95-8.6s-2.1-7.067-2.1-11.2c0-4.267.667-8.117 2-11.55 1.334-3.433 3.234-6.35 5.7-8.75 2.467-2.4 5.45-4.25 8.95-5.55s7.45-1.95 11.85-1.95c4.334 0 8.234.65 11.7 1.95 3.467 1.3 6.4 3.183 8.8 5.65s4.234 5.483 5.5 9.05c1.267 3.567 1.9 7.583 1.9 12.05v1.9z"/><path d="m1001.1 529.9c-3.331-1.733-6.598-2.6-9.798-2.6-1.666 0-3.016.333-4.05 1-1.033.667-1.55 1.567-1.55 2.7 0 .6.084 1.083.25 1.45.167.367.534.717 1.1 1.05.567.333 1.4.633 2.5.9s2.55.6 4.35 1c5 1 8.738 2.783 11.198 5.35 2.47 2.567 3.7 5.85 3.7 9.85 0 3-.6 5.7-1.8 8.1s-2.86 4.417-5 6.05c-2.131 1.633-4.698 2.9-7.698 3.8s-6.3 1.35-9.9 1.35c-6.933 0-13.766-1.967-20.5-5.9l6.6-12.8c5.067 3.467 9.867 5.2 14.4 5.2 1.667 0 3.034-.367 4.1-1.1 1.067-.733 1.6-1.667 1.6-2.8 0-.667-.083-1.217-.25-1.65-.166-.433-.516-.833-1.05-1.2-.533-.367-1.316-.7-2.35-1-1.033-.3-2.383-.617-4.05-.95-5.6-1.133-9.516-2.817-11.75-5.05-2.233-2.233-3.35-5.317-3.35-9.25 0-2.867.534-5.45 1.6-7.75 1.067-2.3 2.6-4.25 4.6-5.85s4.417-2.833 7.25-3.7c2.834-.867 5.984-1.3 9.45-1.3 5.667 0 11.168 1.1 16.498 3.3z"/></g><path d="m12 19h-7c-1.097 0-2-.903-2-2v-11c0-1.097.903-2 2-2h4l3 3h7c1.097 0 2 .903 2 2v3.5m-5 6.5h6m-3-3v6" fill="none" stroke="#adb8c2" stroke-width="2.42" transform="matrix(9.37083 -1.49084 1.49084 9.37083 250.346 518.353)"/></svg>